<svg width="67" height="15" viewBox="0 0 67 15" fill="none" xmlns="http://www.w3.org/2000/svg">
<path d="M3.43528 13.4405C2.80415 13.4739 2.31134 13.3196 1.95683 12.9778C1.61032 12.6356 1.41977 12.137 1.3852 11.4819L1.1474 6.97614C1.11283 6.32105 1.24983 5.80512 1.5584 5.42833C1.87496 5.05112 2.3488 4.84587 2.97992 4.81256C3.61104 4.77925 4.09986 4.9337 4.44638 5.27591C4.80089 5.61771 4.99543 6.11615 5.03 6.77123L5.0768 7.658L3.83053 7.72377L3.77931 6.75312C3.7519 6.23385 3.5185 5.9858 3.07912 6.00899C2.63973 6.03218 2.43374 6.30341 2.46114 6.82269L2.70842 11.5082C2.73541 12.0195 2.96859 12.2635 3.40798 12.2403C3.84737 12.2171 4.05357 11.9499 4.02659 11.4386L3.95892 10.1564L5.20518 10.0906L5.2678 11.277C5.30237 11.9321 5.16137 12.4482 4.84481 12.8254C4.53624 13.2022 4.0664 13.4072 3.43528 13.4405Z" fill="#D90913"/>
<path d="M9.83222 3.91537L11.6192 3.85361L13.2765 12.2014L11.9573 12.2469L11.6598 10.5882L11.6606 10.6122L10.1615 10.664L9.97843 12.3153L8.75516 12.3576L9.83222 3.91537ZM11.4653 9.47828L10.7343 5.34907L10.7103 5.3499L10.278 9.51931L11.4653 9.47828Z" fill="#D90913"/>
<path d="M17.2979 5.05275L15.9181 5.07533L15.8984 3.87549L19.9779 3.80873L19.9975 5.00857L18.6177 5.03115L18.7355 12.2302L17.4157 12.2518L17.2979 5.05275Z" fill="#D90913"/>
<path d="M23.4531 3.7973L26.9451 3.80365L26.9429 5.00365L24.7709 4.9997L24.7667 7.3397L26.4707 7.34279L26.4685 8.54279L24.7645 8.53969L24.7578 12.1997L23.4378 12.1973L23.4531 3.7973Z" fill="#D90913"/>
<path d="M30.6858 3.80573L32.0055 3.83213L31.8615 11.0307L34.0331 11.0741L34.0091 12.2739L30.5178 12.2041L30.6858 3.80573Z" fill="#D90913"/>
<path d="M38.1511 3.81258L39.4702 3.86057L39.1648 12.255L37.8457 12.207L38.1511 3.81258Z" fill="#D90913"/>
<path d="M44.7901 8.97837L43.5564 4.80355L44.9465 4.87691L45.6903 7.63194L45.7143 7.63321L46.768 4.97304L48.0142 5.03881L46.348 9.06059L47.6434 13.4309L46.2534 13.3576L45.449 10.383L45.425 10.3818L44.2881 13.2539L43.0418 13.1881L44.7901 8.97837Z" fill="#D90913"/>
</svg>
