<svg width="512" height="512" viewBox="0 0 512 512" fill="none" xmlns="http://www.w3.org/2000/svg">
<g clip-path="url(#clip0_203_6)">
<path d="M507.52 210.56L393.173 327.68L420.053 493.44C422.421 506.667 408.064 516.352 396.587 510.08L256 432.213V0.639893C261.973 0.639893 267.947 3.41323 270.507 9.17323L341.12 159.573L498.347 183.467C511.488 185.813 516.331 201.28 507.52 210.56V210.56Z" fill="#ECEFF1"/>
<path d="M4.46398 210.757L118.818 327.787L91.9362 493.418C89.5681 506.635 103.926 516.313 115.404 510.046L256 432.239V1C250.026 1 244.053 3.77119 241.492 9.52673L170.875 159.81L13.6379 183.685C0.495738 186.03 -4.34724 201.485 4.46398 210.757V210.757Z" fill="#ECEFF1"/>
</g>
<defs>
<clipPath id="clip0_203_6">
<rect width="512" height="512" fill="white"/>
</clipPath>
</defs>
</svg>
