<svg width="512" height="512" viewBox="0 0 512 512" fill="none" xmlns="http://www.w3.org/2000/svg">
<g clip-path="url(#clip0_203_6)">
<path d="M507.52 210.56L393.173 327.68L420.053 493.44C422.421 506.667 408.064 516.352 396.587 510.08L256 432.213V0.639893C261.973 0.639893 267.947 3.41323 270.507 9.17323L341.12 159.573L498.347 183.467C511.488 185.813 516.331 201.28 507.52 210.56V210.56Z" fill="#ECEFF1"/>
<path d="M256 0.639893V432.213L115.414 510.08C104.128 516.416 89.5578 506.816 91.9471 493.44L118.827 327.68L4.48044 210.56C-4.33023 201.28 0.491108 185.813 13.6538 183.467L170.88 159.573L241.494 9.17323C244.054 3.41323 250.027 0.639893 256 0.639893V0.639893Z" fill="#FFC107"/>
</g>
<defs>
<clipPath id="clip0_203_6">
<rect width="512" height="512" fill="white"/>
</clipPath>
</defs>
</svg>
