<svg width="496" height="496" viewBox="0 0 496 496" fill="none" xmlns="http://www.w3.org/2000/svg">
<path d="M248 92C234.4 92 224 81.6 224 68V24C224 10.4 234.4 0 248 0C261.6 0 272 10.4 272 24V68C272 80.8 261.6 92 248 92Z" fill="#FBD4D4"/>
<path d="M248 496C234.4 496 224 485.6 224 472V428C224 414.4 234.4 404 248 404C261.6 404 272 414.4 272 428V472C272 485.6 261.6 496 248 496Z" fill="#F27D7E"/>
<path d="M157.6 116C149.6 116 141.6 112 136.8 104L115.2 66.3998C108.8 55.1998 112.8 39.9998 124 33.5998C135.2 27.1998 150.4 31.1998 156.8 42.3998L178.4 79.9998C184.8 91.1998 180.8 106.4 169.6 112.8C166.4 114.4 161.6 116 157.6 116Z" fill="#FCE2E2"/>
<path d="M360 465.6C352 465.6 344 461.6 339.2 453.6L317.6 416C311.2 404.8 315.2 389.6 326.4 383.2C337.6 376.8 352.8 380.8 359.2 392L380.8 429.6C387.2 440.8 383.2 456 372 462.4C368 464.8 364 465.6 360 465.6Z" fill="#F48C8C"/>
<path d="M92 181.6C88 181.6 84 180.8 80 178.4L42.4 156.8C31.2 150.4 27.2 135.2 33.6 124C40 112.8 55.2 108.8 66.4 115.2L104 136.8C115.2 143.2 119.2 158.4 112.8 169.6C108 177.6 100 181.6 92 181.6Z" fill="#FEF1F1"/>
<path d="M442.4 384C438.4 384 434.4 383.2 430.4 380.8L392 359.2C380.8 352.8 376.8 337.6 383.2 326.4C389.6 315.2 404.8 311.2 416 317.6L453.6 339.2C464.8 345.6 468.8 360.8 462.4 372C458.4 380 450.4 384 442.4 384Z" fill="#F59A9B"/>
<path d="M68 272H24C10.4 272 0 261.6 0 248C0 234.4 10.4 224 24 224H68C81.6 224 92 234.4 92 248C92 261.6 80.8 272 68 272Z" fill="#EE5253"/>
<path d="M472 272H428C414.4 272 404 261.6 404 248C404 234.4 414.4 224 428 224H472C485.6 224 496 234.4 496 248C496 261.6 485.6 272 472 272Z" fill="#F7A8A9"/>
<path d="M53.6 384C45.6 384 37.6 380 32.8 372C26.4 360.8 30.4 345.6 41.6 339.2L79.2 317.6C90.4 311.2 105.6 315.2 112 326.4C118.4 337.6 114.4 352.8 103.2 359.2L65.6 380.8C62.4 383.2 58.4 384 53.6 384Z" fill="#EF6061"/>
<path d="M404 181.6C396 181.6 388 177.6 383.2 169.6C376.8 158.4 380.8 143.2 392 136.8L429.6 115.2C440.8 108.8 456 112.8 462.4 124C468.8 135.2 464.8 150.4 453.6 156.8L416 178.4C412 180.8 408 181.6 404 181.6Z" fill="#F8B7B7"/>
<path d="M136 465.6C132 465.6 128 464.8 124 462.4C112.8 456 108.8 440.8 115.2 429.6L136.8 392C143.2 380.8 158.4 376.8 169.6 383.2C180.8 389.6 184.8 404.8 178.4 416L156.8 453.6C152 461.6 144 465.6 136 465.6Z" fill="#F16F70"/>
<path d="M338.4 116C334.4 116 330.4 115.2 326.4 112.8C315.2 106.4 311.2 91.1998 317.6 79.9998L339.2 42.3998C345.6 31.1998 360.8 27.1998 372 33.5998C383.2 39.9998 387.2 55.1998 380.8 66.3998L359.2 104C354.4 111.2 346.4 116 338.4 116Z" fill="#F9C5C6"/>
</svg>