<svg width="512" height="512" viewBox="0 0 512 512" fill="none" xmlns="http://www.w3.org/2000/svg">
<g clip-path="url(#clip0_203_2)">
<path d="M507.52 210.56L393.173 327.68L420.053 493.44C422.421 506.667 408.064 516.352 396.587 510.08L256 432.213V0.640137C261.973 0.640137 267.947 3.41347 270.507 9.17347L341.12 159.573L498.347 183.467C511.488 185.813 516.331 201.28 507.52 210.56V210.56Z" fill="#ECEFF1"/>
<path d="M256 0.640137V432.213L115.414 510.08C104.128 516.416 89.5578 506.816 91.9471 493.44L118.827 327.68L4.48044 210.56C-4.33023 201.28 0.491108 185.813 13.6538 183.467L170.88 159.573L241.494 9.17347C244.054 3.41347 250.027 0.640137 256 0.640137V0.640137Z" fill="#FFC107"/>
<path d="M256.534 0.999823L256.083 432.575L396.589 510.589C407.867 516.936 422.448 507.352 420.073 493.973L393.366 328.184L507.835 211.183C516.655 201.912 511.85 186.441 498.69 184.08L341.488 160.023L271.032 9.54834C268.478 3.78564 262.507 1.00606 256.534 0.999823V0.999823Z" fill="#FFC107"/>
</g>
<defs>
<clipPath id="clip0_203_2">
<rect width="512" height="512" fill="white"/>
</clipPath>
</defs>
</svg>
