<svg width="492" height="492" viewBox="0 0 492 492" fill="none" xmlns="http://www.w3.org/2000/svg">
<path d="M293.392 246.104L109.336 62.04C104.268 56.984 101.48 50.224 101.48 43.016C101.48 35.804 104.268 29.048 109.336 23.984L125.464 7.864C130.524 2.792 137.288 0 144.496 0C151.704 0 158.46 2.792 163.524 7.864L382.672 227.008C387.756 232.088 390.54 238.876 390.52 246.092C390.54 253.34 387.76 260.12 382.672 265.204L163.728 484.136C158.664 489.208 151.908 492 144.696 492C137.488 492 130.732 489.208 125.664 484.136L109.54 468.016C99.048 457.524 99.048 440.444 109.54 429.956L293.392 246.104Z" fill="white"/>
</svg>
